<?xml version="1.0" standalone="no"?>
<!DOCTYPE svg PUBLIC "-//W3C//DTD SVG 20010904//EN"
 "http://www.w3.org/TR/2001/REC-SVG-20010904/DTD/svg10.dtd">
<svg version="1.0" xmlns="http://www.w3.org/2000/svg"
 width="128.000000pt" height="128.000000pt" viewBox="0 0 128.000000 128.000000"
 preserveAspectRatio="xMidYMid meet">

<g transform="translate(0.000000,128.000000) scale(0.100000,-0.100000)"
fill="#000000" stroke="none">
<path d="M320 1260 c-16 -16 -20 -33 -20 -80 l0 -60 -48 0 c-26 0 -53 -5 -60
-12 -8 -8 -12 -49 -12 -120 l0 -108 -50 0 c-61 0 -97 -16 -116 -51 -19 -37
-21 -494 -2 -534 20 -44 55 -55 178 -55 l110 0 0 -100 c0 -150 -25 -140 340
-140 365 0 340 -10 340 140 l0 100 110 0 c123 0 158 11 178 55 19 40 17 497
-2 534 -19 35 -55 51 -116 51 l-50 0 0 108 c0 71 -4 112 -12 120 -7 7 -34 12
-60 12 l-48 0 0 60 c0 104 13 100 -340 100 -287 0 -301 -1 -320 -20z m618
-202 l2 -178 -300 0 -300 0 0 173 c0 96 3 177 7 180 4 4 137 6 297 5 l291 -3
3 -177z m-638 -78 l0 -100 -40 0 -40 0 0 100 0 100 40 0 40 0 0 -100z m760 0
l0 -100 -40 0 -40 0 0 100 0 100 40 0 40 0 0 -100z m160 -160 c19 -19 20 -33
20 -260 0 -298 10 -280 -150 -280 l-110 0 0 59 c0 58 1 60 28 63 16 2 27 9 27
18 0 13 -51 15 -395 15 -344 0 -395 -2 -395 -15 0 -9 11 -16 28 -18 26 -3 27
-5 27 -63 l0 -59 -110 0 c-160 0 -150 -18 -150 280 0 227 1 241 20 260 20 20
33 20 580 20 547 0 560 0 580 -20z m-282 -597 l-3 -178 -295 0 -295 0 -3 178
-2 177 300 0 300 0 -2 -177z"/>
<path d="M940 780 c-11 -11 -20 -29 -20 -40 0 -11 9 -29 20 -40 11 -11 29 -20
40 -20 11 0 29 9 40 20 11 11 20 29 20 40 0 11 -9 29 -20 40 -11 11 -29 20
-40 20 -11 0 -29 -9 -40 -20z m56 -31 c10 -17 -13 -36 -27 -22 -12 12 -4 33
11 33 5 0 12 -5 16 -11z"/>
<path d="M1100 780 c-11 -11 -20 -29 -20 -40 0 -11 9 -29 20 -40 11 -11 29
-20 40 -20 11 0 29 9 40 20 11 11 20 29 20 40 0 11 -9 29 -20 40 -11 11 -29
20 -40 20 -11 0 -29 -9 -40 -20z m56 -31 c10 -17 -13 -36 -27 -22 -12 12 -4
33 11 33 5 0 12 -5 16 -11z"/>
<path d="M425 329 c-16 -25 20 -29 231 -27 187 3 219 5 219 18 0 13 -33 15
-222 18 -154 2 -224 -1 -228 -9z"/>
<path d="M425 229 c-16 -25 20 -29 231 -27 187 3 219 5 219 18 0 13 -33 15
-222 18 -154 2 -224 -1 -228 -9z"/>
<path d="M425 129 c-16 -25 20 -29 231 -27 187 3 219 5 219 18 0 13 -33 15
-222 18 -154 2 -224 -1 -228 -9z"/>
</g>
</svg>
