<?xml version="1.0" standalone="no"?>
<!DOCTYPE svg PUBLIC "-//W3C//DTD SVG 20010904//EN"
 "http://www.w3.org/TR/2001/REC-SVG-20010904/DTD/svg10.dtd">
<svg version="1.0" xmlns="http://www.w3.org/2000/svg"
 width="24.000000pt" height="24.000000pt" viewBox="0 0 24.000000 24.000000"
 preserveAspectRatio="xMidYMid meet">

<g transform="translate(0.000000,24.000000) scale(0.100000,-0.100000)"
fill="#000000" stroke="none">
<path d="M58 223 c-66 -31 -76 -132 -19 -187 58 -56 159 -38 188 33 45 107
-61 204 -169 154z m112 -8 c32 -16 60 -61 60 -94 0 -24 -20 -71 -31 -71 -4 0
-1 14 8 30 36 74 -41 160 -117 132 -20 -7 -16 -9 22 -8 80 2 120 -62 79 -127
-11 -19 -18 -37 -15 -40 13 -12 -45 -29 -79 -23 -52 10 -82 48 -82 105 0 26 6
55 14 65 20 24 24 13 6 -20 -8 -16 -14 -38 -14 -49 0 -12 5 -5 11 15 5 19 14
38 20 41 5 3 10 14 12 23 5 37 56 47 106 21z"/>
<path d="M70 121 l0 -61 51 0 50 0 -3 48 c-2 31 -7 46 -15 45 -7 -2 -12 3 -10
10 1 7 -12 13 -35 15 l-38 3 0 -60z m60 34 c0 -8 7 -15 15 -15 10 0 15 -11 15
-35 0 -34 -1 -35 -40 -35 l-40 0 0 50 c0 47 2 50 25 50 16 0 25 -6 25 -15z"/>
<path d="M30 81 c0 -9 49 -56 53 -50 1 2 -10 16 -25 31 -15 15 -28 23 -28 19z"/>
<path d="M120 30 c-20 -6 -21 -8 -5 -8 11 0 29 3 40 8 25 11 -1 11 -35 0z"/>
</g>
</svg>
