<?xml version="1.0" standalone="no"?>
<!DOCTYPE svg PUBLIC "-//W3C//DTD SVG 20010904//EN"
 "http://www.w3.org/TR/2001/REC-SVG-20010904/DTD/svg10.dtd">
<svg version="1.0" xmlns="http://www.w3.org/2000/svg"
 width="128.000000pt" height="128.000000pt" viewBox="0 0 128.000000 128.000000"
 preserveAspectRatio="xMidYMid meet">

<g transform="translate(0.000000,128.000000) scale(0.100000,-0.100000)"
fill="#000000" stroke="none">
<path d="M490 1234 c-30 -8 -84 -28 -120 -45 l-65 -30 28 -21 c20 -14 27 -28
27 -52 l0 -33 64 33 c392 197 832 -197 682 -611 -13 -35 -31 -76 -40 -91 -16
-24 -19 -25 -36 -9 -17 15 -18 14 -24 -37 -4 -29 -9 -71 -13 -92 l-5 -39 88 7
c49 4 91 9 93 12 2 2 -5 14 -17 27 -19 20 -19 24 -5 42 31 42 74 137 88 197
19 82 19 218 0 293 -44 174 -169 328 -326 403 -46 22 -108 45 -137 51 -73 15
-216 13 -282 -5z"/>
<path d="M178 1083 c-53 -4 -56 -8 -31 -35 14 -15 15 -22 5 -36 -77 -108 -112
-210 -119 -342 -15 -278 154 -523 422 -612 57 -18 92 -23 185 -23 130 0 213
20 309 76 l53 31 -31 19 c-24 14 -31 26 -31 49 l0 30 -52 -29 c-144 -80 -313
-87 -461 -18 -261 121 -360 450 -212 704 29 48 31 49 56 27 16 -14 17 -12 23
38 4 29 9 70 12 91 l6 37 -44 -2 c-23 -1 -64 -3 -90 -5z"/>
<path d="M416 914 c-24 -23 -24 -525 0 -548 23 -24 425 -24 448 0 13 13 16 46
16 200 l0 184 -89 0 c-104 0 -101 -3 -101 106 l0 74 -129 0 c-104 0 -133 -3
-145 -16z m272 -221 c3 -23 1 -23 -97 -23 -100 0 -118 6 -107 36 5 12 24 14
103 12 93 -3 98 -4 101 -25z m0 -105 c-3 -22 -8 -23 -97 -26 -96 -3 -118 4
-108 32 5 13 25 16 107 16 99 0 101 0 98 -22z m-14 -84 c9 -3 16 -14 16 -24 0
-24 -19 -30 -105 -30 -40 0 -80 3 -89 6 -19 7 -21 40 -3 47 18 8 162 8 181 1z"/>
<path d="M750 850 l0 -50 52 0 52 0 -49 50 c-27 28 -51 50 -52 50 -2 0 -3 -22
-3 -50z"/>
</g>
</svg>
