<?xml version="1.0" standalone="no"?>
<!DOCTYPE svg PUBLIC "-//W3C//DTD SVG 20010904//EN"
 "http://www.w3.org/TR/2001/REC-SVG-20010904/DTD/svg10.dtd">
<svg version="1.0" xmlns="http://www.w3.org/2000/svg"
 width="128.000000pt" height="128.000000pt" viewBox="0 0 128.000000 128.000000"
 preserveAspectRatio="xMidYMid meet">

<g transform="translate(0.000000,128.000000) scale(0.100000,-0.100000)"
fill="#000000" stroke="none">
<path d="M583 1114 c-21 -21 -24 -31 -19 -63 6 -37 4 -39 -103 -144 l-108
-107 -57 0 c-43 0 -56 -3 -56 -15 0 -12 65 -15 479 -17 455 -3 480 -4 500 -22
20 -18 21 -28 21 -276 0 -304 5 -290 -107 -290 -47 0 -74 -5 -82 -13 -18 -22
-2 -27 81 -27 72 0 80 2 110 29 l33 29 3 253 c2 140 0 264 -3 277 -3 13 -18
35 -32 48 -25 23 -31 24 -171 24 l-145 0 -108 107 c-107 105 -109 107 -103
144 5 32 2 42 -19 63 -17 17 -37 26 -57 26 -20 0 -40 -9 -57 -26z m93 -39 c7
-29 -10 -55 -36 -55 -26 0 -43 26 -36 55 5 20 13 25 36 25 23 0 31 -5 36 -25z
m106 -182 l93 -93 -235 0 -235 0 93 93 c92 92 93 93 142 93 49 0 50 -1 142
-93z"/>
<path d="M37 776 c-14 -13 -29 -35 -32 -48 -3 -13 -5 -137 -3 -277 l3 -253 33
-29 32 -29 466 0 c438 0 465 1 462 17 -3 17 -34 18 -462 21 -410 2 -462 4
-478 19 -16 15 -18 37 -18 273 0 300 -3 291 100 298 42 3 60 8 60 18 0 11 -17
14 -69 14 -58 0 -72 -4 -94 -24z"/>
<path d="M113 703 c-10 -3 -13 -60 -13 -234 l0 -229 540 0 540 0 0 229 c0 199
-2 230 -16 235 -19 7 -1033 7 -1051 -1z m1027 -233 l0 -200 -500 0 -500 0 0
200 0 200 500 0 500 0 0 -200z"/>
<path d="M260 607 c-13 -7 -29 -24 -34 -39 -15 -42 8 -80 67 -114 41 -23 52
-35 52 -54 0 -21 -6 -26 -32 -28 -18 -2 -43 4 -57 13 -24 16 -26 16 -32 1 -9
-24 2 -45 31 -56 76 -29 147 6 147 72 0 50 -11 66 -68 97 -57 30 -72 66 -32
76 13 3 36 2 50 -4 21 -8 29 -6 39 6 30 35 -73 59 -131 30z"/>
<path d="M479 607 c-30 -23 -39 -56 -39 -136 0 -90 11 -124 47 -140 51 -23
113 -6 132 36 14 31 14 175 0 206 -19 43 -103 63 -140 34z m89 -49 c15 -15 16
-142 2 -169 -12 -21 -50 -25 -68 -7 -7 7 -12 42 -12 88 0 80 9 100 45 100 12
0 26 -5 33 -12z"/>
<path d="M682 473 l3 -148 75 0 c70 0 75 1 78 23 3 21 0 22 -52 22 l-55 0 -3
123 c-3 118 -4 122 -26 125 l-23 3 3 -148z"/>
<path d="M876 604 c-12 -30 -7 -259 6 -272 16 -16 91 -15 133 2 43 18 59 71
52 170 -4 60 -8 73 -31 93 -22 19 -39 23 -90 23 -49 0 -65 -4 -70 -16z m132
-122 c3 -94 -5 -112 -49 -112 l-29 0 0 101 0 100 38 -3 37 -3 3 -83z"/>
</g>
</svg>
