<svg xmlns="http://www.w3.org/2000/svg" xmlns:xlink="http://www.w3.org/1999/xlink" width="1920" zoomAndPan="magnify" viewBox="0 0 1440 809.999993" height="1080" preserveAspectRatio="xMidYMid meet" version="1.2"><defs><clipPath id="79727d1b85"><path d="M 0 0 L 1440 0 L 1440 569.054688 L 0 569.054688 Z M 0 0 "/></clipPath></defs><g id="1bba89663b"><rect x="0" width="1440" y="0" height="809.999993" style="fill:#ffffff;fill-opacity:1;stroke:none;"/><rect x="0" width="1440" y="0" height="809.999993" style="fill:#ffffff;fill-opacity:1;stroke:none;"/><g clip-rule="nonzero" clip-path="url(#79727d1b85)"><path style=" stroke:none;fill-rule:nonzero;fill:#2f98bc;fill-opacity:1;" d="M 427.742188 86.453125 L 957.113281 86.453125 C 965.015625 86.453125 972.910156 86.648438 980.800781 87.035156 C 988.691406 87.421875 996.566406 88.003906 1004.429688 88.777344 C 1012.292969 89.554688 1020.128906 90.519531 1027.945312 91.679688 C 1035.757812 92.839844 1043.539062 94.1875 1051.289062 95.730469 C 1059.035156 97.269531 1066.742188 99 1074.40625 100.921875 C 1082.070312 102.839844 1089.679688 104.945312 1097.242188 107.242188 C 1104.800781 109.535156 1112.300781 112.011719 1119.738281 114.671875 C 1127.175781 117.332031 1134.546875 120.175781 1141.84375 123.199219 C 1149.144531 126.222656 1156.363281 129.421875 1163.503906 132.800781 C 1170.644531 136.179688 1177.699219 139.730469 1184.667969 143.453125 C 1191.636719 147.179688 1198.507812 151.070312 1205.285156 155.132812 C 1212.058594 159.195312 1218.730469 163.417969 1225.300781 167.808594 C 1231.871094 172.195312 1238.328125 176.746094 1244.671875 181.449219 C 1251.015625 186.15625 1257.242188 191.015625 1263.351562 196.027344 C 1269.457031 201.039062 1275.4375 206.199219 1281.292969 211.503906 C 1287.144531 216.808594 1292.863281 222.253906 1298.449219 227.839844 C 1304.039062 233.425781 1309.484375 239.148438 1314.789062 245 C 1320.09375 250.855469 1325.253906 256.835938 1330.265625 262.941406 C 1335.277344 269.046875 1340.136719 275.273438 1344.839844 281.621094 C 1349.546875 287.964844 1354.09375 294.421875 1358.484375 300.992188 C 1362.871094 307.558594 1367.097656 314.230469 1371.160156 321.007812 C 1375.222656 327.785156 1379.113281 334.65625 1382.839844 341.625 C 1386.5625 348.589844 1390.113281 355.644531 1393.492188 362.785156 C 1396.867188 369.929688 1400.070312 377.148438 1403.09375 384.445312 C 1406.117188 391.746094 1408.957031 399.113281 1411.617188 406.554688 C 1414.28125 413.992188 1416.757812 421.488281 1419.050781 429.050781 C 1421.34375 436.609375 1423.449219 444.222656 1425.371094 451.886719 C 1427.289062 459.546875 1429.019531 467.253906 1430.5625 475.003906 C 1432.101562 482.75 1433.453125 490.53125 1434.613281 498.347656 C 1435.773438 506.160156 1436.738281 514 1437.511719 521.863281 C 1438.289062 529.722656 1438.867188 537.601562 1439.257812 545.492188 C 1439.644531 553.382812 1439.835938 561.277344 1439.835938 569.175781 L 1439.835938 86.453125 L 1439.175781 86.453125 L 1439.175781 -341.289062 L 0 -341.289062 C 0 -334.289062 0.171875 -327.292969 0.515625 -320.300781 C 0.859375 -313.308594 1.375 -306.328125 2.058594 -299.363281 C 2.746094 -292.394531 3.601562 -285.449219 4.628906 -278.527344 C 5.65625 -271.601562 6.851562 -264.707031 8.21875 -257.839844 C 9.585938 -250.972656 11.117188 -244.144531 12.820312 -237.355469 C 14.519531 -230.566406 16.386719 -223.820312 18.417969 -217.121094 C 20.449219 -210.421875 22.644531 -203.777344 25.003906 -197.1875 C 27.363281 -190.59375 29.882812 -184.066406 32.558594 -177.597656 C 35.238281 -171.132812 38.074219 -164.734375 41.066406 -158.40625 C 44.0625 -152.078125 47.207031 -145.824219 50.507812 -139.652344 C 53.808594 -133.476562 57.257812 -127.390625 60.855469 -121.382812 C 64.453125 -115.378906 68.199219 -109.46875 72.085938 -103.648438 C 75.976562 -97.828125 80.007812 -92.105469 84.175781 -86.480469 C 88.347656 -80.859375 92.652344 -75.34375 97.09375 -69.929688 C 101.535156 -64.519531 106.105469 -59.222656 110.804688 -54.035156 C 115.507812 -48.847656 120.332031 -43.777344 125.28125 -38.828125 C 130.234375 -33.878906 135.300781 -29.054688 140.488281 -24.351562 C 145.675781 -19.652344 150.972656 -15.078125 156.386719 -10.636719 C 161.796875 -6.199219 167.3125 -1.890625 172.9375 2.277344 C 178.558594 6.449219 184.28125 10.476562 190.101562 14.367188 C 195.921875 18.257812 201.835938 22 207.839844 25.597656 C 213.84375 29.199219 219.933594 32.648438 226.105469 35.945312 C 232.28125 39.246094 238.53125 42.394531 244.859375 45.386719 C 251.1875 48.378906 257.585938 51.214844 264.054688 53.894531 C 270.519531 56.574219 277.050781 59.09375 283.640625 61.449219 C 290.230469 63.808594 296.875 66.003906 303.574219 68.035156 C 310.273438 70.066406 317.019531 71.933594 323.808594 73.636719 C 330.601562 75.335938 337.429688 76.871094 344.292969 78.234375 C 351.160156 79.601562 358.054688 80.796875 364.980469 81.824219 C 371.90625 82.851562 378.851562 83.707031 385.816406 84.394531 C 392.785156 85.082031 399.761719 85.597656 406.753906 85.9375 C 413.746094 86.28125 420.742188 86.453125 427.742188 86.453125 Z M 427.742188 86.453125 "/></g></g></svg>