<?xml version="1.0" encoding="UTF-8"?>
<svg xmlns="http://www.w3.org/2000/svg" xmlns:xlink="http://www.w3.org/1999/xlink" width="1920px" height="1920px" viewBox="0 0 480 480" version="1.1">
<g id="surface1">
<path style=" stroke:none;fill-rule:nonzero;fill:rgb(21.960784%,71.372551%,100%);fill-opacity:1;" d="M 32.363281 173.628906 L 73.476562 371.753906 C 73.664062 372.648438 73.867188 373.539062 74.09375 374.425781 C 74.316406 375.3125 74.5625 376.195312 74.824219 377.070312 C 75.085938 377.949219 75.367188 378.816406 75.667969 379.683594 C 75.964844 380.546875 76.285156 381.40625 76.621094 382.253906 C 76.957031 383.105469 77.3125 383.949219 77.683594 384.785156 C 78.054688 385.621094 78.445312 386.449219 78.851562 387.269531 C 79.261719 388.085938 79.683594 388.898438 80.128906 389.699219 C 80.570312 390.5 81.027344 391.289062 81.503906 392.070312 C 81.980469 392.851562 82.472656 393.625 82.980469 394.382812 C 83.488281 395.144531 84.015625 395.894531 84.554688 396.632812 C 85.097656 397.371094 85.652344 398.097656 86.222656 398.808594 C 86.796875 399.523438 87.382812 400.226562 87.984375 400.914062 C 88.585938 401.605469 89.203125 402.28125 89.832031 402.945312 C 90.464844 403.605469 91.109375 404.253906 91.765625 404.890625 C 92.425781 405.527344 93.09375 406.148438 93.78125 406.753906 C 94.464844 407.359375 95.164062 407.953125 95.871094 408.53125 C 96.582031 409.105469 97.304688 409.667969 98.039062 410.214844 C 98.773438 410.761719 99.519531 411.289062 100.273438 411.804688 C 101.03125 412.320312 101.800781 412.816406 102.578125 413.296875 C 103.355469 413.78125 104.144531 414.246094 104.941406 414.691406 C 105.738281 415.140625 106.546875 415.570312 107.359375 415.984375 C 108.175781 416.398438 109.003906 416.792969 109.835938 417.171875 C 110.667969 417.550781 111.507812 417.910156 112.355469 418.253906 C 113.207031 418.59375 114.0625 418.917969 114.921875 419.226562 C 115.785156 419.53125 116.652344 419.816406 117.527344 420.085938 C 118.402344 420.355469 119.28125 420.605469 120.167969 420.835938 C 121.054688 421.066406 121.941406 421.28125 122.835938 421.472656 C 123.730469 421.667969 124.628906 421.839844 125.53125 421.996094 C 126.433594 422.152344 127.335938 422.285156 128.246094 422.402344 C 129.152344 422.519531 130.0625 422.617188 130.972656 422.691406 C 131.886719 422.769531 132.796875 422.828125 133.710938 422.867188 C 134.625 422.90625 135.539062 422.925781 136.457031 422.921875 L 340.703125 422.921875 C 341.640625 422.925781 342.578125 422.902344 343.515625 422.863281 C 344.453125 422.820312 345.390625 422.761719 346.324219 422.679688 C 347.257812 422.597656 348.191406 422.496094 349.121094 422.371094 C 350.050781 422.25 350.980469 422.105469 351.902344 421.941406 C 352.828125 421.78125 353.75 421.597656 354.664062 421.390625 C 355.582031 421.1875 356.492188 420.964844 357.398438 420.722656 C 358.304688 420.476562 359.203125 420.214844 360.097656 419.929688 C 360.992188 419.648438 361.882812 419.34375 362.761719 419.023438 C 363.644531 418.699219 364.519531 418.359375 365.386719 418 C 366.25 417.636719 367.109375 417.257812 367.960938 416.859375 C 368.808594 416.460938 369.648438 416.046875 370.480469 415.609375 C 371.3125 415.175781 372.132812 414.722656 372.945312 414.25 C 373.757812 413.78125 374.558594 413.292969 375.347656 412.785156 C 376.140625 412.277344 376.917969 411.753906 377.683594 411.214844 C 378.453125 410.675781 379.207031 410.117188 379.949219 409.542969 C 380.691406 408.96875 381.421875 408.382812 382.140625 407.777344 C 382.855469 407.171875 383.558594 406.550781 384.25 405.914062 C 384.941406 405.277344 385.617188 404.625 386.277344 403.960938 C 386.9375 403.292969 387.582031 402.613281 388.214844 401.917969 C 388.847656 401.222656 389.460938 400.515625 390.0625 399.796875 C 390.664062 399.074219 391.246094 398.339844 391.816406 397.59375 C 392.382812 396.84375 392.933594 396.085938 393.46875 395.316406 C 394.003906 394.542969 394.523438 393.761719 395.023438 392.96875 C 395.523438 392.175781 396.003906 391.371094 396.472656 390.554688 C 396.9375 389.738281 397.382812 388.914062 397.8125 388.078125 C 398.242188 387.246094 398.652344 386.402344 399.042969 385.546875 C 399.433594 384.695312 399.808594 383.835938 400.164062 382.964844 C 400.515625 382.097656 400.851562 381.21875 401.167969 380.335938 C 401.484375 379.453125 401.78125 378.5625 402.054688 377.667969 C 402.332031 376.769531 402.589844 375.867188 402.828125 374.960938 C 403.0625 374.050781 403.28125 373.136719 403.476562 372.222656 C 403.675781 371.304688 403.851562 370.382812 404.007812 369.457031 L 442.167969 145.96875 C 442.375 144.757812 442.546875 143.546875 442.6875 142.328125 C 442.824219 141.109375 442.925781 139.886719 442.992188 138.664062 C 443.0625 137.441406 443.09375 136.214844 443.09375 134.988281 C 443.089844 133.765625 443.054688 132.539062 442.980469 131.316406 C 442.910156 130.09375 442.800781 128.871094 442.660156 127.652344 C 442.515625 126.4375 442.339844 125.222656 442.128906 124.015625 C 441.917969 122.808594 441.671875 121.609375 441.390625 120.414062 C 441.113281 119.222656 440.796875 118.039062 440.449219 116.863281 C 440.101562 115.6875 439.722656 114.523438 439.308594 113.367188 C 438.890625 112.214844 438.445312 111.074219 437.964844 109.945312 C 437.484375 108.816406 436.972656 107.703125 436.429688 106.605469 C 435.886719 105.507812 435.3125 104.425781 434.707031 103.359375 C 434.101562 102.292969 433.46875 101.246094 432.800781 100.214844 C 432.136719 99.183594 431.441406 98.175781 430.71875 97.1875 C 429.996094 96.195312 429.246094 95.226562 428.46875 94.28125 C 427.691406 93.332031 426.882812 92.410156 426.054688 91.507812 C 425.222656 90.609375 424.367188 89.730469 423.484375 88.878906 C 422.601562 88.027344 421.699219 87.199219 420.769531 86.402344 C 419.839844 85.601562 418.890625 84.828125 417.917969 84.082031 C 416.945312 83.335938 415.953125 82.617188 414.9375 81.929688 C 413.921875 81.242188 412.890625 80.582031 411.839844 79.953125 C 410.789062 79.320312 409.71875 78.722656 408.632812 78.152344 C 407.546875 77.585938 406.445312 77.046875 405.328125 76.542969 C 404.210938 76.035156 403.082031 75.5625 401.9375 75.121094 C 400.796875 74.679688 399.640625 74.273438 398.472656 73.898438 C 397.304688 73.519531 396.128906 73.179688 394.941406 72.871094 C 393.757812 72.566406 392.5625 72.289062 391.359375 72.050781 C 390.15625 71.8125 388.949219 71.605469 387.734375 71.4375 C 386.519531 71.265625 385.304688 71.132812 384.082031 71.03125 C 382.859375 70.929688 381.636719 70.863281 380.410156 70.832031 C 379.1875 70.800781 377.960938 70.808594 376.734375 70.847656 C 375.511719 70.886719 374.285156 70.960938 373.066406 71.070312 L 89.550781 96.546875 C 88.421875 96.644531 87.300781 96.773438 86.183594 96.933594 C 85.066406 97.089844 83.953125 97.277344 82.84375 97.496094 C 81.734375 97.710938 80.632812 97.957031 79.535156 98.234375 C 78.441406 98.507812 77.355469 98.8125 76.273438 99.148438 C 75.195312 99.480469 74.125 99.839844 73.066406 100.230469 C 72.003906 100.621094 70.953125 101.035156 69.917969 101.480469 C 68.878906 101.925781 67.851562 102.398438 66.839844 102.894531 C 65.824219 103.394531 64.824219 103.921875 63.839844 104.472656 C 62.855469 105.023438 61.882812 105.601562 60.929688 106.203125 C 59.972656 106.808594 59.035156 107.433594 58.113281 108.085938 C 57.191406 108.738281 56.285156 109.417969 55.398438 110.117188 C 54.511719 110.816406 53.644531 111.539062 52.796875 112.285156 C 51.949219 113.03125 51.121094 113.800781 50.3125 114.589844 C 49.507812 115.378906 48.71875 116.191406 47.953125 117.019531 C 47.191406 117.851562 46.449219 118.703125 45.726562 119.574219 C 45.007812 120.445312 44.3125 121.332031 43.636719 122.238281 C 42.964844 123.148438 42.316406 124.070312 41.691406 125.011719 C 41.066406 125.953125 40.46875 126.910156 39.894531 127.886719 C 39.320312 128.859375 38.773438 129.84375 38.253906 130.847656 C 37.730469 131.847656 37.238281 132.863281 36.769531 133.894531 C 36.300781 134.921875 35.859375 135.960938 35.445312 137.011719 C 35.035156 138.0625 34.648438 139.125 34.292969 140.195312 C 33.933594 141.269531 33.605469 142.347656 33.308594 143.4375 C 33.007812 144.527344 32.734375 145.625 32.492188 146.726562 C 32.25 147.828125 32.039062 148.9375 31.855469 150.054688 C 31.671875 151.167969 31.519531 152.285156 31.394531 153.410156 C 31.269531 154.53125 31.175781 155.65625 31.109375 156.785156 C 31.042969 157.914062 31.007812 159.042969 31.003906 160.171875 C 31 161.300781 31.023438 162.429688 31.078125 163.558594 C 31.132812 164.6875 31.214844 165.8125 31.328125 166.9375 C 31.441406 168.058594 31.585938 169.179688 31.757812 170.296875 C 31.929688 171.414062 32.132812 172.523438 32.363281 173.628906 Z M 32.363281 173.628906 "/>
<path style=" stroke:none;fill-rule:nonzero;fill:rgb(0%,0%,0%);fill-opacity:1;" d="M 359.945312 445.230469 L 124.101562 445.230469 C 123.011719 445.226562 121.925781 445.203125 120.839844 445.152344 C 119.753906 445.105469 118.671875 445.035156 117.585938 444.941406 C 116.503906 444.84375 115.421875 444.726562 114.347656 444.585938 C 113.269531 444.445312 112.191406 444.285156 111.121094 444.097656 C 110.050781 443.910156 108.984375 443.703125 107.921875 443.46875 C 106.859375 443.238281 105.804688 442.984375 104.753906 442.707031 C 103.703125 442.429688 102.65625 442.132812 101.617188 441.8125 C 100.578125 441.488281 99.546875 441.144531 98.523438 440.78125 C 97.5 440.414062 96.484375 440.027344 95.476562 439.621094 C 94.46875 439.210938 93.472656 438.78125 92.484375 438.332031 C 91.492188 437.878906 90.515625 437.410156 89.546875 436.914062 C 88.578125 436.421875 87.617188 435.910156 86.671875 435.375 C 85.722656 434.84375 84.789062 434.289062 83.863281 433.714844 C 82.941406 433.144531 82.03125 432.550781 81.132812 431.9375 C 80.234375 431.324219 79.347656 430.695312 78.476562 430.042969 C 77.605469 429.394531 76.75 428.726562 75.90625 428.039062 C 75.0625 427.355469 74.234375 426.648438 73.421875 425.929688 C 72.609375 425.207031 71.8125 424.46875 71.03125 423.710938 C 70.25 422.957031 69.484375 422.183594 68.734375 421.394531 C 67.988281 420.609375 67.253906 419.804688 66.542969 418.984375 C 65.828125 418.164062 65.128906 417.332031 64.453125 416.480469 C 63.773438 415.632812 63.113281 414.769531 62.46875 413.890625 C 61.828125 413.015625 61.207031 412.125 60.601562 411.21875 C 59.996094 410.316406 59.414062 409.398438 58.847656 408.472656 C 58.28125 407.542969 57.738281 406.601562 57.214844 405.652344 C 56.6875 404.699219 56.183594 403.734375 55.699219 402.761719 C 55.214844 401.789062 54.753906 400.804688 54.3125 399.8125 C 53.867188 398.820312 53.449219 397.816406 53.050781 396.804688 C 52.648438 395.796875 52.273438 394.777344 51.917969 393.75 C 51.558594 392.722656 51.226562 391.6875 50.914062 390.644531 C 50.601562 389.605469 50.3125 388.558594 50.046875 387.503906 C 49.777344 386.449219 49.535156 385.390625 49.3125 384.328125 L 5.578125 171.660156 C 5.25 170.09375 4.964844 168.515625 4.71875 166.933594 C 4.472656 165.351562 4.273438 163.761719 4.113281 162.167969 C 3.953125 160.574219 3.832031 158.976562 3.757812 157.375 C 3.679688 155.773438 3.648438 154.175781 3.65625 152.570312 C 3.664062 150.96875 3.714844 149.367188 3.808594 147.769531 C 3.898438 146.167969 4.035156 144.574219 4.210938 142.980469 C 4.390625 141.390625 4.609375 139.800781 4.867188 138.222656 C 5.128906 136.640625 5.433594 135.066406 5.777344 133.503906 C 6.121094 131.9375 6.503906 130.382812 6.929688 128.839844 C 7.355469 127.292969 7.824219 125.761719 8.328125 124.242188 C 8.835938 122.722656 9.382812 121.214844 9.96875 119.726562 C 10.554688 118.234375 11.179688 116.757812 11.84375 115.300781 C 12.507812 113.84375 13.210938 112.402344 13.949219 110.984375 C 14.691406 109.5625 15.464844 108.160156 16.28125 106.78125 C 17.09375 105.402344 17.945312 104.042969 18.828125 102.707031 C 19.714844 101.371094 20.636719 100.0625 21.589844 98.773438 C 22.542969 97.488281 23.53125 96.226562 24.554688 94.992188 C 25.574219 93.757812 26.628906 92.550781 27.714844 91.371094 C 28.796875 90.195312 29.914062 89.042969 31.058594 87.925781 C 32.203125 86.804688 33.378906 85.714844 34.582031 84.65625 C 35.785156 83.597656 37.015625 82.574219 38.273438 81.578125 C 39.53125 80.585938 40.8125 79.628906 42.121094 78.703125 C 43.429688 77.777344 44.757812 76.886719 46.113281 76.03125 C 47.46875 75.175781 48.84375 74.355469 50.242188 73.574219 C 51.640625 72.789062 53.058594 72.046875 54.496094 71.335938 C 55.933594 70.628906 57.390625 69.960938 58.863281 69.328125 C 60.335938 68.699219 61.824219 68.105469 63.328125 67.554688 C 64.832031 67 66.347656 66.488281 67.878906 66.015625 C 69.410156 65.542969 70.953125 65.113281 72.507812 64.722656 C 74.058594 64.332031 75.621094 63.980469 77.195312 63.671875 C 78.765625 63.363281 80.347656 63.097656 81.933594 62.871094 C 83.519531 62.648438 85.109375 62.464844 86.707031 62.320312 L 369.785156 36.628906 C 371.636719 36.460938 373.492188 36.347656 375.351562 36.289062 C 377.210938 36.226562 379.070312 36.21875 380.929688 36.265625 C 382.789062 36.3125 384.644531 36.410156 386.496094 36.5625 C 388.351562 36.714844 390.199219 36.921875 392.039062 37.179688 C 393.882812 37.4375 395.714844 37.746094 397.539062 38.109375 C 399.363281 38.472656 401.175781 38.886719 402.976562 39.355469 C 404.777344 39.820312 406.5625 40.339844 408.332031 40.90625 C 410.101562 41.476562 411.855469 42.09375 413.589844 42.761719 C 415.324219 43.433594 417.039062 44.148438 418.734375 44.917969 C 420.429688 45.683594 422.097656 46.5 423.746094 47.359375 C 425.394531 48.222656 427.015625 49.132812 428.613281 50.089844 C 430.207031 51.042969 431.773438 52.042969 433.3125 53.089844 C 434.851562 54.132812 436.359375 55.222656 437.835938 56.351562 C 439.308594 57.484375 440.753906 58.65625 442.164062 59.871094 C 443.570312 61.082031 444.945312 62.335938 446.28125 63.628906 C 447.617188 64.921875 448.917969 66.25 450.179688 67.617188 C 451.441406 68.984375 452.664062 70.386719 453.84375 71.820312 C 455.023438 73.257812 456.164062 74.726562 457.261719 76.226562 C 458.359375 77.730469 459.410156 79.261719 460.421875 80.824219 C 461.429688 82.386719 462.394531 83.972656 463.3125 85.589844 C 464.230469 87.207031 465.101562 88.851562 465.929688 90.515625 C 466.753906 92.183594 467.527344 93.875 468.257812 95.585938 C 468.984375 97.296875 469.664062 99.027344 470.292969 100.777344 C 470.921875 102.527344 471.5 104.292969 472.027344 106.078125 C 472.554688 107.859375 473.03125 109.65625 473.457031 111.464844 C 473.882812 113.277344 474.257812 115.097656 474.578125 116.929688 C 474.898438 118.761719 475.167969 120.601562 475.382812 122.449219 C 475.597656 124.296875 475.761719 126.148438 475.871094 128.003906 C 475.980469 129.859375 476.039062 131.71875 476.042969 133.578125 C 476.046875 135.4375 475.996094 137.296875 475.894531 139.152344 C 475.789062 141.007812 475.636719 142.863281 475.425781 144.710938 C 475.21875 146.558594 474.957031 148.398438 474.640625 150.230469 L 435.28125 381.265625 C 435.097656 382.371094 434.886719 383.46875 434.65625 384.5625 C 434.425781 385.660156 434.167969 386.746094 433.886719 387.832031 C 433.609375 388.914062 433.304688 389.992188 432.976562 391.0625 C 432.652344 392.132812 432.300781 393.195312 431.925781 394.25 C 431.550781 395.304688 431.15625 396.351562 430.734375 397.390625 C 430.316406 398.425781 429.875 399.457031 429.410156 400.472656 C 428.945312 401.492188 428.457031 402.5 427.949219 403.496094 C 427.441406 404.492188 426.910156 405.476562 426.355469 406.453125 C 425.804688 407.425781 425.230469 408.386719 424.636719 409.335938 C 424.042969 410.28125 423.429688 411.21875 422.792969 412.140625 C 422.15625 413.0625 421.503906 413.96875 420.828125 414.859375 C 420.152344 415.753906 419.457031 416.628906 418.742188 417.492188 C 418.03125 418.355469 417.296875 419.199219 416.546875 420.03125 C 415.796875 420.863281 415.027344 421.675781 414.242188 422.472656 C 413.453125 423.265625 412.652344 424.046875 411.832031 424.808594 C 411.011719 425.570312 410.171875 426.3125 409.320312 427.035156 C 408.464844 427.761719 407.597656 428.464844 406.714844 429.152344 C 405.828125 429.839844 404.929688 430.503906 404.019531 431.152344 C 403.105469 431.796875 402.175781 432.425781 401.234375 433.03125 C 400.296875 433.636719 399.339844 434.222656 398.375 434.785156 C 397.410156 435.351562 396.429688 435.894531 395.441406 436.414062 C 394.449219 436.9375 393.449219 437.4375 392.4375 437.914062 C 391.421875 438.390625 390.402344 438.847656 389.367188 439.277344 C 388.335938 439.710938 387.296875 440.121094 386.246094 440.507812 C 385.195312 440.894531 384.136719 441.257812 383.070312 441.601562 C 382.003906 441.941406 380.929688 442.257812 379.851562 442.550781 C 378.769531 442.84375 377.683594 443.113281 376.59375 443.359375 C 375.5 443.605469 374.40625 443.828125 373.304688 444.023438 C 372.199219 444.222656 371.09375 444.398438 369.988281 444.546875 C 368.878906 444.695312 367.765625 444.820312 366.652344 444.921875 C 365.535156 445.019531 364.417969 445.097656 363.300781 445.148438 C 362.183594 445.199219 361.066406 445.226562 359.945312 445.230469 Z M 10.058594 170.785156 L 53.796875 383.453125 C 54.003906 384.457031 54.230469 385.453125 54.480469 386.449219 C 54.730469 387.441406 55 388.429688 55.292969 389.414062 C 55.585938 390.394531 55.898438 391.371094 56.230469 392.339844 C 56.5625 393.308594 56.917969 394.269531 57.292969 395.226562 C 57.664062 396.179688 58.058594 397.125 58.472656 398.0625 C 58.886719 399 59.324219 399.925781 59.777344 400.847656 C 60.230469 401.765625 60.703125 402.675781 61.195312 403.574219 C 61.6875 404.472656 62.199219 405.359375 62.730469 406.238281 C 63.257812 407.113281 63.808594 407.980469 64.375 408.832031 C 64.941406 409.6875 65.523438 410.527344 66.128906 411.359375 C 66.730469 412.1875 67.351562 413.003906 67.988281 413.804688 C 68.625 414.609375 69.277344 415.398438 69.949219 416.171875 C 70.621094 416.945312 71.304688 417.707031 72.007812 418.453125 C 72.710938 419.199219 73.429688 419.929688 74.164062 420.644531 C 74.898438 421.359375 75.648438 422.058594 76.410156 422.742188 C 77.175781 423.425781 77.953125 424.09375 78.746094 424.742188 C 79.535156 425.394531 80.34375 426.027344 81.160156 426.640625 C 81.980469 427.257812 82.8125 427.855469 83.65625 428.4375 C 84.5 429.019531 85.355469 429.582031 86.226562 430.125 C 87.09375 430.671875 87.972656 431.195312 88.863281 431.703125 C 89.753906 432.210938 90.65625 432.699219 91.566406 433.167969 C 92.476562 433.636719 93.398438 434.085938 94.328125 434.515625 C 95.257812 434.945312 96.199219 435.355469 97.144531 435.742188 C 98.09375 436.132812 99.050781 436.503906 100.011719 436.851562 C 100.976562 437.203125 101.945312 437.53125 102.925781 437.839844 C 103.902344 438.148438 104.886719 438.433594 105.875 438.699219 C 106.863281 438.964844 107.859375 439.210938 108.859375 439.433594 C 109.859375 439.660156 110.863281 439.863281 111.871094 440.042969 C 112.878906 440.226562 113.894531 440.382812 114.90625 440.523438 C 115.921875 440.660156 116.941406 440.777344 117.960938 440.875 C 118.980469 440.96875 120.003906 441.042969 121.027344 441.09375 C 122.050781 441.144531 123.074219 441.175781 124.101562 441.183594 L 359.945312 441.183594 C 360.996094 441.183594 362.050781 441.160156 363.101562 441.117188 C 364.152344 441.070312 365.203125 441.003906 366.253906 440.910156 C 367.300781 440.820312 368.347656 440.703125 369.390625 440.566406 C 370.433594 440.429688 371.472656 440.269531 372.511719 440.085938 C 373.546875 439.902344 374.578125 439.699219 375.605469 439.46875 C 376.632812 439.242188 377.65625 438.992188 378.671875 438.71875 C 379.691406 438.445312 380.699219 438.152344 381.703125 437.832031 C 382.707031 437.515625 383.703125 437.175781 384.691406 436.816406 C 385.679688 436.457031 386.660156 436.074219 387.632812 435.667969 C 388.605469 435.265625 389.570312 434.839844 390.523438 434.394531 C 391.476562 433.949219 392.417969 433.480469 393.351562 432.996094 C 394.285156 432.507812 395.207031 432 396.117188 431.472656 C 397.027344 430.945312 397.925781 430.398438 398.8125 429.828125 C 399.699219 429.261719 400.574219 428.675781 401.433594 428.070312 C 402.296875 427.464844 403.144531 426.839844 403.976562 426.199219 C 404.8125 425.558594 405.628906 424.894531 406.433594 424.21875 C 407.238281 423.539062 408.027344 422.84375 408.804688 422.128906 C 409.578125 421.417969 410.335938 420.6875 411.078125 419.941406 C 411.820312 419.195312 412.546875 418.433594 413.253906 417.65625 C 413.964844 416.875 414.65625 416.082031 415.328125 415.273438 C 416.003906 414.464844 416.660156 413.644531 417.296875 412.804688 C 417.9375 411.96875 418.554688 411.117188 419.15625 410.253906 C 419.757812 409.390625 420.339844 408.511719 420.902344 407.621094 C 421.464844 406.734375 422.003906 405.832031 422.527344 404.917969 C 423.050781 404.003906 423.554688 403.078125 424.035156 402.144531 C 424.519531 401.207031 424.980469 400.261719 425.421875 399.308594 C 425.863281 398.351562 426.28125 397.386719 426.679688 396.410156 C 427.078125 395.4375 427.457031 394.457031 427.8125 393.464844 C 428.167969 392.472656 428.5 391.476562 428.8125 390.46875 C 429.125 389.464844 429.414062 388.453125 429.679688 387.433594 C 429.949219 386.417969 430.195312 385.394531 430.417969 384.363281 C 430.640625 383.335938 430.839844 382.304688 431.015625 381.265625 L 470.378906 150.230469 C 470.683594 148.476562 470.9375 146.714844 471.144531 144.945312 C 471.347656 143.175781 471.503906 141.398438 471.605469 139.621094 C 471.710938 137.84375 471.761719 136.0625 471.761719 134.28125 C 471.765625 132.5 471.714844 130.71875 471.613281 128.941406 C 471.511719 127.160156 471.359375 125.386719 471.160156 123.617188 C 470.957031 121.847656 470.703125 120.082031 470.398438 118.328125 C 470.097656 116.574219 469.742188 114.828125 469.339844 113.09375 C 468.933594 111.355469 468.480469 109.632812 467.980469 107.925781 C 467.476562 106.214844 466.925781 104.523438 466.328125 102.84375 C 465.726562 101.167969 465.082031 99.507812 464.386719 97.867188 C 463.691406 96.226562 462.953125 94.605469 462.164062 93.007812 C 461.378906 91.410156 460.546875 89.835938 459.667969 88.285156 C 458.789062 86.734375 457.867188 85.210938 456.90625 83.710938 C 455.941406 82.214844 454.933594 80.746094 453.882812 79.304688 C 452.835938 77.863281 451.746094 76.457031 450.617188 75.078125 C 449.484375 73.699219 448.316406 72.355469 447.109375 71.046875 C 445.902344 69.734375 444.660156 68.460938 443.382812 67.222656 C 442.101562 65.980469 440.785156 64.78125 439.4375 63.617188 C 438.089844 62.453125 436.707031 61.328125 435.296875 60.242188 C 433.882812 59.15625 432.4375 58.113281 430.964844 57.109375 C 429.492188 56.109375 427.992188 55.148438 426.464844 54.234375 C 424.9375 53.316406 423.382812 52.445312 421.804688 51.617188 C 420.226562 50.789062 418.628906 50.007812 417.003906 49.273438 C 415.382812 48.539062 413.742188 47.847656 412.078125 47.207031 C 410.417969 46.566406 408.738281 45.972656 407.039062 45.425781 C 405.34375 44.882812 403.632812 44.386719 401.910156 43.9375 C 400.183594 43.492188 398.449219 43.09375 396.703125 42.746094 C 394.953125 42.398438 393.199219 42.101562 391.433594 41.851562 C 389.671875 41.605469 387.898438 41.410156 386.125 41.265625 C 384.347656 41.117188 382.570312 41.023438 380.789062 40.980469 C 379.007812 40.9375 377.226562 40.941406 375.445312 41 C 373.664062 41.058594 371.886719 41.167969 370.113281 41.328125 L 86.597656 66.804688 C 85.085938 66.949219 83.578125 67.132812 82.078125 67.355469 C 80.574219 67.578125 79.082031 67.839844 77.59375 68.144531 C 76.105469 68.445312 74.628906 68.785156 73.15625 69.164062 C 71.6875 69.546875 70.230469 69.964844 68.78125 70.417969 C 67.332031 70.875 65.898438 71.371094 64.476562 71.902344 C 63.054688 72.433594 61.648438 73.003906 60.253906 73.609375 C 58.863281 74.214844 57.488281 74.855469 56.128906 75.535156 C 54.773438 76.210938 53.433594 76.925781 52.113281 77.675781 C 50.792969 78.421875 49.492188 79.207031 48.210938 80.023438 C 46.933594 80.839844 45.675781 81.6875 44.441406 82.574219 C 43.207031 83.457031 41.996094 84.371094 40.808594 85.316406 C 39.621094 86.261719 38.460938 87.242188 37.324219 88.25 C 36.1875 89.257812 35.082031 90.292969 34 91.359375 C 32.917969 92.425781 31.867188 93.519531 30.84375 94.640625 C 29.820312 95.761719 28.828125 96.910156 27.863281 98.082031 C 26.902344 99.257812 25.972656 100.453125 25.070312 101.675781 C 24.171875 102.898438 23.304688 104.144531 22.46875 105.414062 C 21.636719 106.679688 20.835938 107.972656 20.066406 109.28125 C 19.300781 110.589844 18.570312 111.921875 17.875 113.269531 C 17.175781 114.617188 16.515625 115.984375 15.890625 117.367188 C 15.265625 118.75 14.679688 120.152344 14.125 121.566406 C 13.574219 122.980469 13.0625 124.40625 12.585938 125.847656 C 12.109375 127.289062 11.671875 128.742188 11.273438 130.207031 C 10.871094 131.671875 10.511719 133.144531 10.1875 134.628906 C 9.867188 136.113281 9.582031 137.605469 9.339844 139.101562 C 9.09375 140.601562 8.890625 142.105469 8.726562 143.613281 C 8.5625 145.121094 8.4375 146.636719 8.351562 148.152344 C 8.265625 149.667969 8.222656 151.183594 8.214844 152.703125 C 8.210938 154.21875 8.246094 155.738281 8.320312 157.253906 C 8.394531 158.769531 8.507812 160.28125 8.660156 161.792969 C 8.816406 163.304688 9.007812 164.808594 9.242188 166.308594 C 9.476562 167.808594 9.746094 169.300781 10.058594 170.785156 Z M 10.058594 170.785156 "/>
</g>
</svg>
