<svg version="1.2" preserveAspectRatio="xMidYMid meet" viewBox="0 259.19999776000003 1362.2497187851518 550.79999524" zoomAndPan="magnify" xmlns:xlink="http://www.w3.org/1999/xlink" xmlns="http://www.w3.org/2000/svg" style="max-height: 500px" width="1362.2497187851518" height="550.79999524"><defs><clipPath id="eaa0adbb8e"><rect height="630" y="0" width="1440" x="0"/></clipPath></defs><g id="01151fc4c4"><g transform="matrix(1,0,0,1,0,180)"><g clip-path="url(#eaa0adbb8e)"><path d="M 1044.976562 502.683594 L 494.867188 502.683594 C 486.660156 502.683594 478.453125 502.484375 470.253906 502.082031 C 462.054688 501.679688 453.871094 501.074219 445.699219 500.269531 C 437.53125 499.464844 429.382812 498.460938 421.261719 497.253906 C 413.144531 496.050781 405.054688 494.648438 397.003906 493.046875 C 388.953125 491.445312 380.945312 489.644531 372.980469 487.648438 C 365.019531 485.65625 357.109375 483.464844 349.253906 481.082031 C 341.394531 478.699219 333.601562 476.125 325.875 473.359375 C 318.144531 470.59375 310.488281 467.636719 302.902344 464.496094 C 295.316406 461.355469 287.8125 458.027344 280.394531 454.519531 C 272.972656 451.007812 265.640625 447.316406 258.402344 443.445312 C 251.160156 439.574219 244.019531 435.53125 236.976562 431.308594 C 229.9375 427.089844 223.003906 422.695312 216.175781 418.136719 C 209.351562 413.574219 202.640625 408.847656 196.046875 403.957031 C 189.453125 399.066406 182.980469 394.015625 176.636719 388.808594 C 170.289062 383.597656 164.074219 378.238281 157.992188 372.722656 C 151.910156 367.210938 145.964844 361.550781 140.160156 355.746094 C 134.355469 349.9375 128.695312 343.996094 123.183594 337.910156 C 117.667969 331.828125 112.308594 325.613281 107.101562 319.265625 C 101.894531 312.917969 96.84375 306.449219 91.953125 299.851562 C 87.0625 293.257812 82.335938 286.546875 77.777344 279.722656 C 73.214844 272.894531 68.824219 265.960938 64.605469 258.917969 C 60.382812 251.875 56.335938 244.734375 52.46875 237.492188 C 48.597656 230.25 44.90625 222.917969 41.398438 215.496094 C 37.886719 208.074219 34.5625 200.570312 31.421875 192.984375 C 28.277344 185.402344 25.324219 177.742188 22.558594 170.011719 C 19.792969 162.28125 17.21875 154.488281 14.835938 146.628906 C 12.453125 138.773438 10.265625 130.863281 8.269531 122.898438 C 6.273438 114.933594 4.476562 106.925781 2.875 98.875 C 1.273438 90.820312 -0.128906 82.734375 -1.335938 74.613281 C -2.539062 66.488281 -3.542969 58.34375 -4.347656 50.171875 C -5.152344 42 -5.757812 33.816406 -6.160156 25.617188 C -6.5625 17.414062 -6.765625 9.210938 -6.765625 1 L -6.765625 502.683594 L -6.078125 502.683594 L -6.078125 947.230469 L 1489.472656 947.230469 C 1489.472656 939.957031 1489.296875 932.683594 1488.9375 925.417969 C 1488.582031 918.152344 1488.046875 910.898438 1487.332031 903.660156 C 1486.621094 896.417969 1485.730469 889.199219 1484.664062 882.003906 C 1483.59375 874.804688 1482.351562 867.640625 1480.933594 860.503906 C 1479.515625 853.371094 1477.921875 846.273438 1476.152344 839.214844 C 1474.386719 832.160156 1472.445312 825.148438 1470.332031 818.1875 C 1468.222656 811.222656 1465.941406 804.320312 1463.492188 797.46875 C 1461.039062 790.617188 1458.421875 783.832031 1455.636719 777.109375 C 1452.855469 770.390625 1449.90625 763.738281 1446.796875 757.164062 C 1443.6875 750.585938 1440.417969 744.089844 1436.988281 737.671875 C 1433.558594 731.257812 1429.972656 724.929688 1426.234375 718.6875 C 1422.496094 712.449219 1418.605469 706.304688 1414.5625 700.253906 C 1410.519531 694.207031 1406.332031 688.257812 1402 682.414062 C 1397.667969 676.570312 1393.191406 670.839844 1388.578125 665.214844 C 1383.960938 659.589844 1379.210938 654.082031 1374.328125 648.691406 C 1369.441406 643.300781 1364.425781 638.035156 1359.285156 632.890625 C 1354.140625 627.746094 1348.871094 622.730469 1343.480469 617.84375 C 1338.09375 612.957031 1332.585938 608.207031 1326.960938 603.59375 C 1321.339844 598.976562 1315.605469 594.503906 1309.761719 590.167969 C 1303.921875 585.835938 1297.972656 581.648438 1291.925781 577.605469 C 1285.878906 573.5625 1279.734375 569.671875 1273.492188 565.929688 C 1267.253906 562.191406 1260.925781 558.605469 1254.511719 555.175781 C 1248.09375 551.746094 1241.597656 548.476562 1235.023438 545.367188 C 1228.445312 542.253906 1221.796875 539.308594 1215.078125 536.523438 C 1208.355469 533.738281 1201.570312 531.121094 1194.722656 528.671875 C 1187.875 526.21875 1180.96875 523.9375 1174.007812 521.828125 C 1167.046875 519.714844 1160.035156 517.773438 1152.980469 516.007812 C 1145.921875 514.238281 1138.828125 512.644531 1131.691406 511.226562 C 1124.558594 509.808594 1117.394531 508.5625 1110.195312 507.496094 C 1103 506.429688 1095.785156 505.539062 1088.542969 504.824219 C 1081.304688 504.113281 1074.050781 503.578125 1066.785156 503.21875 C 1059.519531 502.863281 1052.25 502.683594 1044.976562 502.683594 Z M 1044.976562 502.683594" style="stroke:none;fill-rule:nonzero;fill:#ffda2b;fill-opacity:1;"/><path d="M 1020.246094 520.84375 L 470.191406 520.84375 C 461.984375 520.84375 453.78125 520.640625 445.582031 520.238281 C 437.382812 519.835938 429.199219 519.230469 421.027344 518.425781 C 412.859375 517.621094 404.714844 516.617188 396.59375 515.414062 C 388.476562 514.207031 380.390625 512.804688 372.339844 511.203125 C 364.289062 509.601562 356.28125 507.804688 348.316406 505.808594 C 340.355469 503.816406 332.445312 501.628906 324.589844 499.246094 C 316.734375 496.863281 308.941406 494.289062 301.214844 491.523438 C 293.484375 488.757812 285.828125 485.804688 278.246094 482.660156 C 270.660156 479.519531 263.160156 476.195312 255.738281 472.683594 C 248.316406 469.175781 240.988281 465.484375 233.746094 461.617188 C 226.507812 457.746094 219.367188 453.703125 212.328125 449.480469 C 205.285156 445.261719 198.351562 440.871094 191.527344 436.308594 C 184.703125 431.75 177.992188 427.023438 171.398438 422.132812 C 164.804688 417.246094 158.335938 412.195312 151.992188 406.988281 C 145.644531 401.78125 139.433594 396.421875 133.351562 390.90625 C 127.265625 385.394531 121.324219 379.738281 115.519531 373.933594 C 109.714844 368.128906 104.054688 362.183594 98.542969 356.101562 C 93.03125 350.019531 87.671875 343.804688 82.464844 337.460938 C 77.253906 331.113281 72.207031 324.644531 67.316406 318.050781 C 62.425781 311.457031 57.703125 304.75 53.140625 297.925781 C 48.582031 291.097656 44.191406 284.164062 39.96875 277.125 C 35.75 270.082031 31.703125 262.945312 27.835938 255.703125 C 23.964844 248.464844 20.277344 241.132812 16.765625 233.714844 C 13.257812 226.292969 9.929688 218.789062 6.789062 211.207031 C 3.648438 203.625 0.695312 195.964844 -2.070312 188.238281 C -4.835938 180.507812 -7.410156 172.714844 -9.792969 164.863281 C -12.175781 157.007812 -14.363281 149.097656 -16.359375 141.132812 C -18.351562 133.171875 -20.152344 125.164062 -21.753906 117.113281 C -23.355469 109.0625 -24.757812 100.976562 -25.960938 92.855469 C -27.167969 84.738281 -28.171875 76.59375 -28.976562 68.421875 C -29.78125 60.253906 -30.382812 52.070312 -30.785156 43.871094 C -31.191406 35.671875 -31.390625 27.46875 -31.390625 19.257812 L -31.390625 520.84375 L -30.703125 520.84375 L -30.703125 965.296875 L 1464.699219 965.296875 C 1464.699219 958.023438 1464.523438 950.753906 1464.164062 943.488281 C 1463.808594 936.222656 1463.273438 928.972656 1462.5625 921.734375 C 1461.847656 914.492188 1460.957031 907.277344 1459.890625 900.082031 C 1458.824219 892.886719 1457.578125 885.722656 1456.160156 878.589844 C 1454.742188 871.453125 1453.148438 864.359375 1451.382812 857.304688 C 1449.613281 850.246094 1447.675781 843.238281 1445.5625 836.277344 C 1443.453125 829.316406 1441.171875 822.414062 1438.71875 815.566406 C 1436.269531 808.714844 1433.652344 801.933594 1430.867188 795.210938 C 1428.085938 788.492188 1425.136719 781.84375 1422.027344 775.269531 C 1418.917969 768.691406 1415.648438 762.199219 1412.21875 755.78125 C 1408.792969 749.367188 1405.207031 743.039062 1401.46875 736.800781 C 1397.726562 730.5625 1393.839844 724.417969 1389.796875 718.371094 C 1385.753906 712.324219 1381.570312 706.378906 1377.234375 700.535156 C 1372.902344 694.691406 1368.429688 688.960938 1363.8125 683.335938 C 1359.199219 677.714844 1354.449219 672.207031 1349.566406 666.820312 C 1344.679688 661.429688 1339.667969 656.164062 1334.523438 651.019531 C 1329.378906 645.875 1324.113281 640.863281 1318.722656 635.976562 C 1313.335938 631.09375 1307.828125 626.34375 1302.207031 621.730469 C 1296.582031 617.113281 1290.851562 612.640625 1285.007812 608.308594 C 1279.164062 603.972656 1273.21875 599.789062 1267.171875 595.746094 C 1261.125 591.707031 1254.980469 587.816406 1248.742188 584.074219 C 1242.503906 580.335938 1236.175781 576.75 1229.761719 573.324219 C 1223.34375 569.894531 1216.851562 566.625 1210.273438 563.515625 C 1203.699219 560.40625 1197.050781 557.457031 1190.332031 554.675781 C 1183.613281 551.890625 1176.828125 549.273438 1169.976562 546.824219 C 1163.128906 544.371094 1156.226562 542.089844 1149.265625 539.980469 C 1142.304688 537.867188 1135.296875 535.929688 1128.238281 534.160156 C 1121.183594 532.394531 1114.089844 530.800781 1106.953125 529.382812 C 1099.820312 527.964844 1092.65625 526.71875 1085.460938 525.652344 C 1078.265625 524.585938 1071.050781 523.695312 1063.808594 522.980469 C 1056.570312 522.269531 1049.320312 521.734375 1042.054688 521.378906 C 1034.789062 521.019531 1027.519531 520.84375 1020.246094 520.84375 Z M 1020.246094 520.84375" style="stroke:none;fill-rule:nonzero;fill:#2f98bc;fill-opacity:1;"/></g></g></g></svg>