<?xml version="1.0" standalone="no"?>
<!DOCTYPE svg PUBLIC "-//W3C//DTD SVG 20010904//EN"
 "http://www.w3.org/TR/2001/REC-SVG-20010904/DTD/svg10.dtd">
<svg version="1.0" xmlns="http://www.w3.org/2000/svg"
 width="64.000000pt" height="64.000000pt" viewBox="0 0 64.000000 64.000000"
 preserveAspectRatio="xMidYMid meet">

<g transform="translate(0.000000,64.000000) scale(0.100000,-0.100000)"
fill="#000000" stroke="none">
<path d="M22 580 c-12 -12 -22 -32 -22 -46 0 -29 41 -74 68 -74 33 0 72 38 72
71 0 61 -73 91 -118 49z m76 -46 c4 -27 -26 -40 -46 -20 -21 20 -8 48 20 44
14 -2 24 -11 26 -24z"/>
<path d="M185 539 c-16 -25 20 -29 231 -27 187 3 219 5 219 18 0 13 -33 15
-222 18 -154 2 -224 -1 -228 -9z"/>
<path d="M22 367 c-28 -30 -28 -68 1 -95 30 -28 68 -28 95 1 28 30 28 68 -1
95 -30 28 -68 28 -95 -1z m73 -47 c0 -18 -6 -26 -23 -28 -24 -4 -38 18 -28 44
3 9 15 14 28 12 17 -2 23 -10 23 -28z"/>
<path d="M185 329 c-16 -25 20 -29 231 -27 187 3 219 5 219 18 0 13 -33 15
-222 18 -154 2 -224 -1 -228 -9z"/>
<path d="M25 155 c-46 -45 -19 -115 45 -115 65 0 94 79 44 119 -35 27 -59 26
-89 -4z m63 -24 c21 -13 10 -46 -16 -49 -27 -4 -40 22 -22 43 14 17 20 18 38
6z"/>
<path d="M185 119 c-16 -25 20 -29 231 -27 187 3 219 5 219 18 0 13 -33 15
-222 18 -154 2 -224 -1 -228 -9z"/>
</g>
</svg>
