<?xml version="1.0" standalone="no"?>
<!DOCTYPE svg PUBLIC "-//W3C//DTD SVG 20010904//EN"
 "http://www.w3.org/TR/2001/REC-SVG-20010904/DTD/svg10.dtd">
<svg version="1.0" xmlns="http://www.w3.org/2000/svg"
 width="64.000000pt" height="64.000000pt" viewBox="0 0 64.000000 64.000000"
 preserveAspectRatio="xMidYMid meet">

<g transform="translate(0.000000,64.000000) scale(0.100000,-0.100000)"
fill="#000000" stroke="none">
<path d="M245 621 c-50 -22 -91 -69 -105 -119 -14 -53 -12 -125 5 -148 8 -10
15 -27 15 -37 0 -10 10 -21 23 -26 63 -24 57 -79 -11 -99 -75 -23 -127 -82
-134 -152 l-3 -35 285 0 285 0 -3 35 c-7 70 -59 129 -133 151 -57 18 -65 38
-37 99 13 29 30 50 38 50 28 0 40 23 40 75 0 103 -38 172 -115 206 -51 24 -99
24 -150 0z m151 -27 c38 -18 69 -56 79 -97 11 -41 -7 -32 -30 14 -12 26 -33
49 -55 60 -73 40 -160 13 -195 -60 -19 -39 -35 -53 -35 -30 0 27 36 82 69 105
43 29 115 32 167 8z m5 -63 c16 -17 29 -40 29 -54 0 -24 -1 -25 -37 -15 -21 6
-50 19 -65 29 -32 23 -66 24 -96 3 -32 -22 -28 2 7 37 25 25 37 29 81 29 44 0
56 -4 81 -29z m-75 -66 c20 -13 52 -27 71 -31 l35 -7 -6 -54 c-11 -96 -42
-133 -109 -133 -36 0 -88 32 -75 46 5 4 16 0 26 -9 25 -23 69 -22 82 2 23 44
-29 77 -75 47 -38 -25 -52 -20 -59 22 -11 70 -7 89 25 116 38 32 39 32 85 1z
m-142 -47 c10 -38 7 -58 -9 -58 -11 0 -15 11 -15 40 0 43 14 54 24 18z m296
-18 c0 -29 -4 -40 -15 -40 -16 0 -19 20 -9 58 10 36 24 25 24 -18z m-150 -100
c0 -5 -12 -10 -26 -10 -14 0 -23 4 -19 10 3 6 15 10 26 10 10 0 19 -4 19 -10z
m-50 -105 l24 -25 -21 -22 -22 -21 -14 34 c-13 33 -13 59 2 59 4 0 18 -11 31
-25z m122 13 c3 -7 -1 -28 -9 -47 l-14 -34 -22 21 -21 22 24 25 c26 28 36 31
42 13z m-72 -2 c0 -11 -19 -15 -25 -6 -3 5 1 10 9 10 9 0 16 -2 16 -4z m-75
-110 c19 -32 35 -60 35 -62 0 -2 -52 -4 -115 -4 -130 0 -131 1 -88 68 30 47
112 91 126 69 4 -7 23 -38 42 -71z m260 48 c15 -6 65 -85 65 -101 0 -10 -27
-13 -115 -13 -63 0 -115 3 -115 6 0 3 8 18 19 32 10 15 28 46 40 70 l21 42 38
-16 c20 -9 42 -18 47 -20z m-170 -14 c18 -19 17 -21 -1 -55 -10 -19 -21 -35
-24 -35 -3 0 -14 16 -24 35 -18 34 -19 36 -1 55 10 11 21 20 25 20 4 0 15 -9
25 -20z"/>
<path d="M450 130 c0 -5 5 -10 10 -10 6 0 10 5 10 10 0 6 -4 10 -10 10 -5 0
-10 -4 -10 -10z"/>
<path d="M490 113 c1 -10 36 -53 44 -53 13 0 5 28 -12 43 -20 18 -32 22 -32
10z"/>
</g>
</svg>
